<?xml version="1.0" encoding="iso-8859-1"?>
<!-- Generator: Adobe Illustrator 19.0.0, SVG Export Plug-In . SVG Version: 6.00 Build 0)  -->
<svg version="1.1" id="Layer_1" xmlns="http://www.w3.org/2000/svg" xmlns:xlink="http://www.w3.org/1999/xlink" x="0px" y="0px"
	 viewBox="0 0 511.992 511.992" style="enable-background:new 0 0 511.992 511.992;" xml:space="preserve">
<path style="fill:#81AF46;" d="M351.98,34.438c-57.64-38.234-153.036-8.344-153.036-8.344l-35,69.514l19.218,27.812l177.052-6.265
	C360.215,117.155,409.635,72.671,351.98,34.438z"/>
<path style="fill:#8CC153;" d="M306.012,99.827l-12.718-32.749L260.076,35.75c0,0-66.491-35.75-95.577-26.562
	C85.001,34.313,83.298,167.951,83.298,167.951s-19.546,199.48,59.842,301.494c45.616,58.607,113.537,39.608,113.537,39.608
	l31.492-58.202l-0.688-181.449L306.012,99.827z"/>
<path style="opacity:0.1;enable-background:new    ;" d="M213.155,109.999c2.531-5.312,0.281-11.688-5.039-14.219
	c-5.32-2.531-11.687-0.281-14.218,5.047c-1.141,2.375-27.937,59.327-36.64,141.138c-2.406,22.671-3.18,45.046-2.305,66.968
	c-11.039-19.219-15.758-47.438-16.758-60.14c-0.453-5.875-5.585-10.266-11.453-9.812c-5.875,0.453-10.273,5.578-9.812,11.453
	c0.055,0.766,1.516,19.015,7.445,39.499c7.523,25.983,18.703,43.733,33.265,52.874c1.547,12.874,3.687,25.577,6.414,38.046
	c10.242,46.843,28.851,90.67,55.413,130.622c10.226,0.953,19.164,0.438,25.71-0.359c-29.265-40.64-49.507-85.795-60.187-134.388
	c-9.171-41.687-11.39-86.029-6.593-131.778C186.577,166.81,212.741,110.874,213.155,109.999z"/>
<path style="opacity:0.05;enable-background:new    ;" d="M288.169,450.85l-0.688-181.449l18.53-169.574l-11.796-30.39
	c-0.375,1.281-1.031,2.375-2.156,3.187c-6.406,4.641-7.344-1.406-25.624,3.719c-18.289,5.109-25.961,15.078-31.094,31.515
	s27.891,38.468,23.766,51.905c-4.118,13.437-29.469,22.733-32.937,38.937c-3.469,16.203,23.335,27.015,26.538,43.858
	c3.195,16.858,4.571,29.296-0.922,43.233c-5.484,13.938-29.733,26.921-36.601,55.655c-6.859,28.733,35.687,87.607,33.406,111.231
	c-2.289,23.641-8.758,58.03,5.882,56.421c8.204-0.906,11.165-0.922,18.258-1.984L288.169,450.85z"/>
<path style="fill:#A0D468;" d="M400.963,329.025c30.938-139.06,57.608-217.776-26.765-319.743
	c-27.093-32.749-47.905,31.124-55.452,38.327c-7.547,7.188,1.047,20.391-5.359,25.015c-6.406,4.641-7.344-1.406-25.624,3.719
	c-18.28,5.109-25.952,15.078-31.085,31.515c-5.132,16.437,27.882,38.468,23.773,51.905c-4.125,13.437-29.483,22.733-32.952,38.937
	c-3.461,16.203,23.336,27.015,26.547,43.858c3.202,16.858,4.577,29.296-0.922,43.233c-5.492,13.938-29.742,26.921-36.602,55.655
	c-6.867,28.733,35.695,87.607,33.398,111.231c-2.289,23.641-27.883,57.983-13.243,56.374
	C347.855,499.038,366.151,485.444,400.963,329.025z"/>
<path style="opacity:0.1;enable-background:new    ;" d="M379.229,198.481c-5.891,0.391-10.328,5.469-9.938,11.343
	c0.016,0.219,1.438,22.875-3.218,48.124c-4.047,21.906-10.891,36.344-18.328,45.859c0.25-2.062,0.484-4.125,0.703-6.203
	c8.828-81.514,6.703-151.013,6.688-151.7c-0.203-5.891-5.125-10.5-11.016-10.312s-10.5,5.125-10.312,11
	c0.016,0.688,2.094,68.92-6.594,148.981c-10.422,96.045-31.827,169.027-62.178,212.526c10.226-1.234,19.46-2.562,27.882-4.234
	c12.421-21.671,23.124-48.062,31.952-78.904c7.625-26.608,13.906-56.624,18.766-89.561c52.748-29.874,47.201-122.919,46.936-126.981
	C390.182,202.528,385.104,198.075,379.229,198.481z"/>
<g>
</g>
<g>
</g>
<g>
</g>
<g>
</g>
<g>
</g>
<g>
</g>
<g>
</g>
<g>
</g>
<g>
</g>
<g>
</g>
<g>
</g>
<g>
</g>
<g>
</g>
<g>
</g>
<g>
</g>
</svg>
